<?xml version="1.0" standalone="no"?>
<!DOCTYPE svg PUBLIC "-//W3C//DTD SVG 20010904//EN"
 "http://www.w3.org/TR/2001/REC-SVG-20010904/DTD/svg10.dtd">
<svg version="1.0" xmlns="http://www.w3.org/2000/svg"
 width="700.000000pt" height="700.000000pt" viewBox="0 0 700.000000 700.000000"
 preserveAspectRatio="xMidYMid meet">
<metadata>
Created by potrace 1.14, written by Peter Selinger 2001-2017
</metadata>
<g transform="translate(0.000000,700.000000) scale(0.100000,-0.100000)"
fill="#000000" stroke="none">
<path d="M0 3500 l0 -3501 1898 4 c1043 1 1908 6 1922 9 14 4 56 9 93 13 37 3
78 8 90 11 12 2 38 6 57 9 19 3 46 7 60 10 14 3 41 8 60 11 101 18 323 78 458
123 176 60 468 193 606 276 32 19 62 35 67 35 5 0 9 5 9 10 0 6 5 10 10 10 15
0 220 141 330 227 152 118 324 280 450 422 36 41 70 79 76 85 6 6 48 61 94
121 150 197 277 405 383 628 26 53 47 99 47 102 0 2 11 28 24 57 57 127 151
421 182 573 17 81 54 301 59 350 4 33 9 71 12 85 4 14 8 881 10 1928 l4 1902
-3501 0 -3500 0 0 -3500z"/>
</g>
</svg>
